<svg width="248" height="84" viewBox="0 0 248 84" fill="none" xmlns="http://www.w3.org/2000/svg">
<path d="M25.4747 20.4H37.9547V27.2H25.4747V20.4ZM26.1147 30.88H40.1147V38H16.8347V10H39.5947V17.12H26.1147V30.88ZM52.1581 38L40.3181 10H50.4781L60.1181 33.64H54.0781L63.9981 10H73.2781L61.4381 38H52.1581ZM82.8575 20.4H95.3375V27.2H82.8575V20.4ZM83.4975 30.88H97.4975V38H74.2175V10H96.9775V17.12H83.4975V30.88ZM101.132 38V10H108.892L123.132 27.04H119.532V10H128.732V38H120.972L106.732 20.96H110.332V38H101.132ZM139.36 38V17.32H131.16V10H157V17.32H148.8V38H139.36ZM159.452 38V10H168.892V30.68H181.532V38H159.452ZM188.527 38V25.72L190.687 31.36L177.967 10H187.927L196.527 24.6H190.727L199.407 10H208.527L195.887 31.36L197.967 25.72V38H188.527Z" fill="white"/>
<path d="M47.3342 62V52.9H48.4002L52.4822 59.777H51.9102L55.9402 52.9H57.0062L57.0192 62H55.7712L55.7582 54.863H56.0572L52.4692 60.895H51.8712L48.2572 54.863H48.5822V62H47.3342ZM63.8453 62V60.544L63.7803 60.271V57.788C63.7803 57.2593 63.6243 56.852 63.3123 56.566C63.0089 56.2713 62.5496 56.124 61.9343 56.124C61.5269 56.124 61.1283 56.1933 60.7383 56.332C60.3483 56.462 60.0189 56.6397 59.7503 56.865L59.2303 55.929C59.5856 55.643 60.0103 55.4263 60.5043 55.279C61.0069 55.123 61.5313 55.045 62.0773 55.045C63.0219 55.045 63.7499 55.2747 64.2613 55.734C64.7726 56.1933 65.0283 56.8953 65.0283 57.84V62H63.8453ZM61.5833 62.078C61.0719 62.078 60.6213 61.9913 60.2313 61.818C59.8499 61.6447 59.5553 61.4063 59.3473 61.103C59.1393 60.791 59.0353 60.44 59.0353 60.05C59.0353 59.6773 59.1219 59.3393 59.2953 59.036C59.4773 58.7327 59.7676 58.49 60.1663 58.308C60.5736 58.126 61.1196 58.035 61.8043 58.035H63.9883V58.932H61.8563C61.2323 58.932 60.8119 59.036 60.5953 59.244C60.3786 59.452 60.2703 59.7033 60.2703 59.998C60.2703 60.336 60.4046 60.609 60.6733 60.817C60.9419 61.0163 61.3146 61.116 61.7913 61.116C62.2593 61.116 62.6666 61.012 63.0133 60.804C63.3686 60.596 63.6243 60.2927 63.7803 59.894L64.0273 60.752C63.8626 61.1593 63.5723 61.4843 63.1563 61.727C62.7403 61.961 62.2159 62.078 61.5833 62.078ZM68.3518 60.336L68.3778 58.737L72.3428 55.11H73.8508L70.8088 58.1L70.1328 58.672L68.3518 60.336ZM67.3378 62V52.354H68.5858V62H67.3378ZM72.6028 62L69.8988 58.646L70.7048 57.645L74.1368 62H72.6028ZM78.1372 62.078C77.4006 62.078 76.7506 61.9263 76.1872 61.623C75.6326 61.3197 75.1992 60.9037 74.8872 60.375C74.5839 59.8463 74.4322 59.2397 74.4322 58.555C74.4322 57.8703 74.5796 57.2637 74.8742 56.735C75.1776 56.2063 75.5892 55.7947 76.1092 55.5C76.6379 55.1967 77.2316 55.045 77.8902 55.045C78.5576 55.045 79.1469 55.1923 79.6582 55.487C80.1696 55.7817 80.5682 56.1977 80.8542 56.735C81.1489 57.2637 81.2962 57.8833 81.2962 58.594C81.2962 58.646 81.2919 58.7067 81.2832 58.776C81.2832 58.8453 81.2789 58.9103 81.2702 58.971H75.4072V58.074H80.6202L80.1132 58.386C80.1219 57.944 80.0309 57.5497 79.8402 57.203C79.6496 56.8563 79.3852 56.5877 79.0472 56.397C78.7179 56.1977 78.3322 56.098 77.8902 56.098C77.4569 56.098 77.0712 56.1977 76.7332 56.397C76.3952 56.5877 76.1309 56.8607 75.9402 57.216C75.7496 57.5627 75.6542 57.9613 75.6542 58.412V58.62C75.6542 59.0793 75.7582 59.491 75.9662 59.855C76.1829 60.2103 76.4819 60.4877 76.8632 60.687C77.2446 60.8863 77.6822 60.986 78.1762 60.986C78.5836 60.986 78.9519 60.9167 79.2812 60.778C79.6192 60.6393 79.9139 60.4313 80.1652 60.154L80.8542 60.96C80.5422 61.324 80.1522 61.6013 79.6842 61.792C79.2249 61.9827 78.7092 62.078 78.1372 62.078ZM95.1394 55.045C95.6941 55.045 96.1837 55.1533 96.6084 55.37C97.0331 55.5867 97.3624 55.916 97.5964 56.358C97.8391 56.8 97.9604 57.359 97.9604 58.035V62H96.7124V58.178C96.7124 57.5107 96.5564 57.008 96.2444 56.67C95.9324 56.332 95.4947 56.163 94.9314 56.163C94.5154 56.163 94.1514 56.2497 93.8394 56.423C93.5274 56.5963 93.2847 56.852 93.1114 57.19C92.9467 57.528 92.8644 57.9483 92.8644 58.451V62H91.6164V58.178C91.6164 57.5107 91.4604 57.008 91.1484 56.67C90.8451 56.332 90.4074 56.163 89.8354 56.163C89.4281 56.163 89.0684 56.2497 88.7564 56.423C88.4444 56.5963 88.2017 56.852 88.0284 57.19C87.8551 57.528 87.7684 57.9483 87.7684 58.451V62H86.5204V55.11H87.7164V56.943L87.5214 56.475C87.7381 56.0243 88.0717 55.6733 88.5224 55.422C88.9731 55.1707 89.4974 55.045 90.0954 55.045C90.7541 55.045 91.3217 55.2097 91.7984 55.539C92.2751 55.8597 92.5871 56.3493 92.7344 57.008L92.2274 56.8C92.4354 56.2713 92.7994 55.8467 93.3194 55.526C93.8394 55.2053 94.4461 55.045 95.1394 55.045ZM103.325 62.078C102.588 62.078 101.938 61.9263 101.375 61.623C100.82 61.3197 100.387 60.9037 100.075 60.375C99.7714 59.8463 99.6197 59.2397 99.6197 58.555C99.6197 57.8703 99.7671 57.2637 100.062 56.735C100.365 56.2063 100.777 55.7947 101.297 55.5C101.825 55.1967 102.419 55.045 103.078 55.045C103.745 55.045 104.334 55.1923 104.846 55.487C105.357 55.7817 105.756 56.1977 106.042 56.735C106.336 57.2637 106.484 57.8833 106.484 58.594C106.484 58.646 106.479 58.7067 106.471 58.776C106.471 58.8453 106.466 58.9103 106.458 58.971H100.595V58.074H105.808L105.301 58.386C105.309 57.944 105.218 57.5497 105.028 57.203C104.837 56.8563 104.573 56.5877 104.235 56.397C103.905 56.1977 103.52 56.098 103.078 56.098C102.644 56.098 102.259 56.1977 101.921 56.397C101.583 56.5877 101.318 56.8607 101.128 57.216C100.937 57.5627 100.842 57.9613 100.842 58.412V58.62C100.842 59.0793 100.946 59.491 101.154 59.855C101.37 60.2103 101.669 60.4877 102.051 60.687C102.432 60.8863 102.87 60.986 103.364 60.986C103.771 60.986 104.139 60.9167 104.469 60.778C104.807 60.6393 105.101 60.4313 105.353 60.154L106.042 60.96C105.73 61.324 105.34 61.6013 104.872 61.792C104.412 61.9827 103.897 62.078 103.325 62.078ZM116.836 55.045C117.39 55.045 117.88 55.1533 118.305 55.37C118.729 55.5867 119.059 55.916 119.293 56.358C119.535 56.8 119.657 57.359 119.657 58.035V62H118.409V58.178C118.409 57.5107 118.253 57.008 117.941 56.67C117.629 56.332 117.191 56.163 116.628 56.163C116.212 56.163 115.848 56.2497 115.536 56.423C115.224 56.5963 114.981 56.852 114.808 57.19C114.643 57.528 114.561 57.9483 114.561 58.451V62H113.313V58.178C113.313 57.5107 113.157 57.008 112.845 56.67C112.541 56.332 112.104 56.163 111.532 56.163C111.124 56.163 110.765 56.2497 110.453 56.423C110.141 56.5963 109.898 56.852 109.725 57.19C109.551 57.528 109.465 57.9483 109.465 58.451V62H108.217V55.11H109.413V56.943L109.218 56.475C109.434 56.0243 109.768 55.6733 110.219 55.422C110.669 55.1707 111.194 55.045 111.792 55.045C112.45 55.045 113.018 55.2097 113.495 55.539C113.971 55.8597 114.283 56.3493 114.431 57.008L113.924 56.8C114.132 56.2713 114.496 55.8467 115.016 55.526C115.536 55.2053 116.142 55.045 116.836 55.045ZM124.904 62.078C124.211 62.078 123.595 61.9263 123.058 61.623C122.521 61.3197 122.096 60.9037 121.784 60.375C121.472 59.8377 121.316 59.231 121.316 58.555C121.316 57.8703 121.472 57.2637 121.784 56.735C122.096 56.2063 122.521 55.7947 123.058 55.5C123.595 55.1967 124.211 55.045 124.904 55.045C125.589 55.045 126.2 55.1967 126.737 55.5C127.283 55.7947 127.708 56.2063 128.011 56.735C128.323 57.255 128.479 57.8617 128.479 58.555C128.479 59.2397 128.323 59.8463 128.011 60.375C127.708 60.9037 127.283 61.3197 126.737 61.623C126.2 61.9263 125.589 62.078 124.904 62.078ZM124.904 60.986C125.346 60.986 125.74 60.8863 126.087 60.687C126.442 60.4877 126.72 60.206 126.919 59.842C127.118 59.4693 127.218 59.0403 127.218 58.555C127.218 58.061 127.118 57.6363 126.919 57.281C126.72 56.917 126.442 56.6353 126.087 56.436C125.74 56.2367 125.346 56.137 124.904 56.137C124.462 56.137 124.068 56.2367 123.721 56.436C123.374 56.6353 123.097 56.917 122.889 57.281C122.681 57.6363 122.577 58.061 122.577 58.555C122.577 59.0403 122.681 59.4693 122.889 59.842C123.097 60.206 123.374 60.4877 123.721 60.687C124.068 60.8863 124.462 60.986 124.904 60.986ZM130.205 62V55.11H131.401V56.982L131.284 56.514C131.475 56.0373 131.795 55.6733 132.246 55.422C132.697 55.1707 133.251 55.045 133.91 55.045V56.254C133.858 56.2453 133.806 56.241 133.754 56.241C133.711 56.241 133.667 56.241 133.624 56.241C132.957 56.241 132.428 56.4403 132.038 56.839C131.648 57.2377 131.453 57.814 131.453 58.568V62H130.205ZM135.448 62V55.11H136.696V62H135.448ZM136.072 53.784C135.829 53.784 135.626 53.706 135.461 53.55C135.305 53.394 135.227 53.2033 135.227 52.978C135.227 52.744 135.305 52.549 135.461 52.393C135.626 52.237 135.829 52.159 136.072 52.159C136.315 52.159 136.514 52.237 136.67 52.393C136.835 52.5403 136.917 52.7267 136.917 52.952C136.917 53.186 136.839 53.3853 136.683 53.55C136.527 53.706 136.323 53.784 136.072 53.784ZM142.147 62.078C141.41 62.078 140.76 61.9263 140.197 61.623C139.642 61.3197 139.209 60.9037 138.897 60.375C138.594 59.8463 138.442 59.2397 138.442 58.555C138.442 57.8703 138.589 57.2637 138.884 56.735C139.187 56.2063 139.599 55.7947 140.119 55.5C140.648 55.1967 141.241 55.045 141.9 55.045C142.567 55.045 143.157 55.1923 143.668 55.487C144.179 55.7817 144.578 56.1977 144.864 56.735C145.159 57.2637 145.306 57.8833 145.306 58.594C145.306 58.646 145.302 58.7067 145.293 58.776C145.293 58.8453 145.289 58.9103 145.28 58.971H139.417V58.074H144.63L144.123 58.386C144.132 57.944 144.041 57.5497 143.85 57.203C143.659 56.8563 143.395 56.5877 143.057 56.397C142.728 56.1977 142.342 56.098 141.9 56.098C141.467 56.098 141.081 56.1977 140.743 56.397C140.405 56.5877 140.141 56.8607 139.95 57.216C139.759 57.5627 139.664 57.9613 139.664 58.412V58.62C139.664 59.0793 139.768 59.491 139.976 59.855C140.193 60.2103 140.492 60.4877 140.873 60.687C141.254 60.8863 141.692 60.986 142.186 60.986C142.593 60.986 142.962 60.9167 143.291 60.778C143.629 60.6393 143.924 60.4313 144.175 60.154L144.864 60.96C144.552 61.324 144.162 61.6013 143.694 61.792C143.235 61.9827 142.719 62.078 142.147 62.078ZM149.015 62.078C148.443 62.078 147.897 62 147.377 61.844C146.866 61.688 146.463 61.4973 146.168 61.272L146.688 60.284C146.983 60.4833 147.347 60.6523 147.78 60.791C148.213 60.9297 148.655 60.999 149.106 60.999C149.687 60.999 150.103 60.9167 150.354 60.752C150.614 60.5873 150.744 60.3577 150.744 60.063C150.744 59.8463 150.666 59.6773 150.51 59.556C150.354 59.4347 150.146 59.3437 149.886 59.283C149.635 59.2223 149.353 59.1703 149.041 59.127C148.729 59.075 148.417 59.0143 148.105 58.945C147.793 58.867 147.507 58.763 147.247 58.633C146.987 58.4943 146.779 58.308 146.623 58.074C146.467 57.8313 146.389 57.5107 146.389 57.112C146.389 56.696 146.506 56.332 146.74 56.02C146.974 55.708 147.303 55.4697 147.728 55.305C148.161 55.1317 148.673 55.045 149.262 55.045C149.713 55.045 150.168 55.1013 150.627 55.214C151.095 55.318 151.476 55.4697 151.771 55.669L151.238 56.657C150.926 56.449 150.601 56.306 150.263 56.228C149.925 56.15 149.587 56.111 149.249 56.111C148.703 56.111 148.296 56.202 148.027 56.384C147.758 56.5573 147.624 56.7827 147.624 57.06C147.624 57.294 147.702 57.476 147.858 57.606C148.023 57.7273 148.231 57.8227 148.482 57.892C148.742 57.9613 149.028 58.022 149.34 58.074C149.652 58.1173 149.964 58.178 150.276 58.256C150.588 58.3253 150.87 58.425 151.121 58.555C151.381 58.685 151.589 58.867 151.745 59.101C151.91 59.335 151.992 59.647 151.992 60.037C151.992 60.453 151.871 60.8127 151.628 61.116C151.385 61.4193 151.043 61.6577 150.601 61.831C150.159 61.9957 149.63 62.078 149.015 62.078ZM159.409 62.078C158.716 62.078 158.178 61.8917 157.797 61.519C157.416 61.1463 157.225 60.6133 157.225 59.92V53.602H158.473V59.868C158.473 60.2407 158.564 60.5267 158.746 60.726C158.937 60.9253 159.205 61.025 159.552 61.025C159.942 61.025 160.267 60.9167 160.527 60.7L160.917 61.597C160.726 61.7617 160.497 61.883 160.228 61.961C159.968 62.039 159.695 62.078 159.409 62.078ZM156.055 56.137V55.11H160.449V56.137H156.055ZM166.105 55.045C166.668 55.045 167.162 55.1533 167.587 55.37C168.02 55.5867 168.358 55.916 168.601 56.358C168.843 56.8 168.965 57.359 168.965 58.035V62H167.717V58.178C167.717 57.5107 167.552 57.008 167.223 56.67C166.902 56.332 166.447 56.163 165.858 56.163C165.416 56.163 165.03 56.2497 164.701 56.423C164.371 56.5963 164.116 56.852 163.934 57.19C163.76 57.528 163.674 57.9483 163.674 58.451V62H162.426V52.354H163.674V56.969L163.427 56.475C163.652 56.0243 163.999 55.6733 164.467 55.422C164.935 55.1707 165.481 55.045 166.105 55.045ZM175.551 62V60.544L175.486 60.271V57.788C175.486 57.2593 175.33 56.852 175.018 56.566C174.715 56.2713 174.256 56.124 173.64 56.124C173.233 56.124 172.834 56.1933 172.444 56.332C172.054 56.462 171.725 56.6397 171.456 56.865L170.936 55.929C171.292 55.643 171.716 55.4263 172.21 55.279C172.713 55.123 173.237 55.045 173.783 55.045C174.728 55.045 175.456 55.2747 175.967 55.734C176.479 56.1933 176.734 56.8953 176.734 57.84V62H175.551ZM173.289 62.078C172.778 62.078 172.327 61.9913 171.937 61.818C171.556 61.6447 171.261 61.4063 171.053 61.103C170.845 60.791 170.741 60.44 170.741 60.05C170.741 59.6773 170.828 59.3393 171.001 59.036C171.183 58.7327 171.474 58.49 171.872 58.308C172.28 58.126 172.826 58.035 173.51 58.035H175.694V58.932H173.562C172.938 58.932 172.518 59.036 172.301 59.244C172.085 59.452 171.976 59.7033 171.976 59.998C171.976 60.336 172.111 60.609 172.379 60.817C172.648 61.0163 173.021 61.116 173.497 61.116C173.965 61.116 174.373 61.012 174.719 60.804C175.075 60.596 175.33 60.2927 175.486 59.894L175.733 60.752C175.569 61.1593 175.278 61.4843 174.862 61.727C174.446 61.961 173.922 62.078 173.289 62.078ZM181.41 62.078C180.717 62.078 180.179 61.8917 179.798 61.519C179.417 61.1463 179.226 60.6133 179.226 59.92V53.602H180.474V59.868C180.474 60.2407 180.565 60.5267 180.747 60.726C180.938 60.9253 181.206 61.025 181.553 61.025C181.943 61.025 182.268 60.9167 182.528 60.7L182.918 61.597C182.727 61.7617 182.498 61.883 182.229 61.961C181.969 62.039 181.696 62.078 181.41 62.078ZM178.056 56.137V55.11H182.45V56.137H178.056ZM187.918 62V52.354H189.166V62H187.918ZM195.826 62V60.544L195.761 60.271V57.788C195.761 57.2593 195.605 56.852 195.293 56.566C194.989 56.2713 194.53 56.124 193.915 56.124C193.507 56.124 193.109 56.1933 192.719 56.332C192.329 56.462 191.999 56.6397 191.731 56.865L191.211 55.929C191.566 55.643 191.991 55.4263 192.485 55.279C192.987 55.123 193.512 55.045 194.058 55.045C195.002 55.045 195.73 55.2747 196.242 55.734C196.753 56.1933 197.009 56.8953 197.009 57.84V62H195.826ZM193.564 62.078C193.052 62.078 192.602 61.9913 192.212 61.818C191.83 61.6447 191.536 61.4063 191.328 61.103C191.12 60.791 191.016 60.44 191.016 60.05C191.016 59.6773 191.102 59.3393 191.276 59.036C191.458 58.7327 191.748 58.49 192.147 58.308C192.554 58.126 193.1 58.035 193.785 58.035H195.969V58.932H193.837C193.213 58.932 192.792 59.036 192.576 59.244C192.359 59.452 192.251 59.7033 192.251 59.998C192.251 60.336 192.385 60.609 192.654 60.817C192.922 61.0163 193.295 61.116 193.772 61.116C194.24 61.116 194.647 61.012 194.994 60.804C195.349 60.596 195.605 60.2927 195.761 59.894L196.008 60.752C195.843 61.1593 195.553 61.4843 195.137 61.727C194.721 61.961 194.196 62.078 193.564 62.078ZM201.294 62.078C200.722 62.078 200.176 62 199.656 61.844C199.145 61.688 198.742 61.4973 198.447 61.272L198.967 60.284C199.262 60.4833 199.626 60.6523 200.059 60.791C200.493 60.9297 200.935 60.999 201.385 60.999C201.966 60.999 202.382 60.9167 202.633 60.752C202.893 60.5873 203.023 60.3577 203.023 60.063C203.023 59.8463 202.945 59.6773 202.789 59.556C202.633 59.4347 202.425 59.3437 202.165 59.283C201.914 59.2223 201.632 59.1703 201.32 59.127C201.008 59.075 200.696 59.0143 200.384 58.945C200.072 58.867 199.786 58.763 199.526 58.633C199.266 58.4943 199.058 58.308 198.902 58.074C198.746 57.8313 198.668 57.5107 198.668 57.112C198.668 56.696 198.785 56.332 199.019 56.02C199.253 55.708 199.583 55.4697 200.007 55.305C200.441 55.1317 200.952 55.045 201.541 55.045C201.992 55.045 202.447 55.1013 202.906 55.214C203.374 55.318 203.756 55.4697 204.05 55.669L203.517 56.657C203.205 56.449 202.88 56.306 202.542 56.228C202.204 56.15 201.866 56.111 201.528 56.111C200.982 56.111 200.575 56.202 200.306 56.384C200.038 56.5573 199.903 56.7827 199.903 57.06C199.903 57.294 199.981 57.476 200.137 57.606C200.302 57.7273 200.51 57.8227 200.761 57.892C201.021 57.9613 201.307 58.022 201.619 58.074C201.931 58.1173 202.243 58.178 202.555 58.256C202.867 58.3253 203.149 58.425 203.4 58.555C203.66 58.685 203.868 58.867 204.024 59.101C204.189 59.335 204.271 59.647 204.271 60.037C204.271 60.453 204.15 60.8127 203.907 61.116C203.665 61.4193 203.322 61.6577 202.88 61.831C202.438 61.9957 201.91 62.078 201.294 62.078ZM208.197 62.078C207.504 62.078 206.966 61.8917 206.585 61.519C206.204 61.1463 206.013 60.6133 206.013 59.92V53.602H207.261V59.868C207.261 60.2407 207.352 60.5267 207.534 60.726C207.725 60.9253 207.993 61.025 208.34 61.025C208.73 61.025 209.055 60.9167 209.315 60.7L209.705 61.597C209.514 61.7617 209.285 61.883 209.016 61.961C208.756 62.039 208.483 62.078 208.197 62.078ZM204.843 56.137V55.11H209.237V56.137H204.843Z" fill="white"/>
</svg>
